<?xml version="1.0" encoding="UTF-8"?>
<svg xmlns="http://www.w3.org/2000/svg" width="130" height="48" viewBox="0 0 130 48" fill="none">
    <g clip-path="url(#clip0_282_64)">
        <path d="M124.999 40.2397C125.435 40.1061 125.836 39.9058 126.205 39.6386C127.846 38.5366 128.483 36.6665 128.517 34.6628C128.517 32.559 127.646 30.3883 125.836 29.4533C124.43 28.7187 123.057 28.8188 121.549 28.7521H119.238C117.329 28.7521 115.788 30.3883 115.788 32.392V47.5196H119.172V40.7406H121.382L125.77 47.5196H129.89L124.999 40.2397ZM119.172 32.893C119.172 32.4254 119.506 32.0247 119.942 32.0247H121.617C123.994 32.0247 125.033 32.7259 125.033 34.8632C125.033 36.9337 123.391 37.6015 121.784 37.6015H119.172V32.893Z" fill="white"/>
        <path d="M100.984 47.5869H113.143V44.3141H104.367V39.2717H110.865V36.1325H104.367V32.9268C104.367 32.4592 104.735 32.0918 105.171 32.0918H113.143V28.8192H104.367C102.492 28.8192 100.984 30.4556 100.984 32.4258V47.5869Z" fill="white"/>
        <path d="M84.0029 28.5857C82.7636 28.6191 81.9597 29.7879 81.9597 31.0569V47.587H85.0077V33.9956L93.113 47.587H96.3621V28.8195H93.3142V41.6763L86.4814 30.1886C85.8785 29.2202 85.1081 28.5857 84.0029 28.5857Z" fill="white"/>
        <path d="M64.8442 28.5857C63.6049 28.6191 62.801 29.7879 62.801 31.0569V47.587H65.849V33.9956L73.9545 47.587H77.2034V28.8195H74.1555V41.6763L67.3227 30.1886C66.7198 29.2202 65.9494 28.5857 64.8442 28.5857Z" fill="white"/>
        <path d="M58.045 28.8192H54.6621V47.5869H58.045V28.8192Z" fill="white"/>
        <path d="M42.8722 28.8192H39.4223L36.5753 41.676L33.5943 28.8192H30.1445L34.2978 45.8837C34.5657 47.0191 35.5036 47.854 36.6423 47.8206C37.6806 47.7872 38.518 46.9857 38.7524 45.9839L41.0636 35.1308L43.5086 45.9171C43.7431 46.9857 44.6139 47.8206 45.6522 47.854C46.724 47.9208 47.5948 47.0525 47.8628 46.0173L52.0161 28.8526H48.8341L45.7862 41.843L42.8722 28.8192Z" fill="white"/>
        <path d="M16.7135 28.8192V32.0918H24.752L16.1106 45.2826V47.5869H28.7379V44.3141H20.7998L28.3359 32.8933C28.7714 31.9917 28.8718 31.1235 28.5369 30.2885C28.1014 29.2533 26.9627 28.8192 25.9913 28.8192H16.7135Z" fill="#FAB417"/>
        <path d="M3.41638 28.8192C1.54072 28.8192 0 30.4556 0 32.4258V47.5869H6.16288C8.67493 47.5869 11.0195 46.9857 12.5937 44.7483C13.9 42.8782 14.4024 40.4739 14.4024 38.0361C14.4024 36.0324 14.0339 33.8618 12.9287 32.0918C11.3879 29.5205 8.97641 28.8526 5.89493 28.8192H3.41638ZM3.38288 32.9268C3.38288 32.4592 3.71783 32.0918 4.18674 32.0918H6.0624C7.60312 32.0918 9.31129 32.2589 10.1486 33.8952C10.785 35.064 10.919 36.8005 10.919 38.1696C10.919 39.7725 10.8855 41.6427 9.81375 43.0118C8.84239 44.2474 7.13421 44.3141 5.72746 44.3141H3.38288V32.9268Z" fill="#FAB417"/>
        <path fill-rule="evenodd" clip-rule="evenodd" d="M62.8682 20.8046H67.055V5.97754H62.8682V20.8046Z" fill="white"/>
        <path fill-rule="evenodd" clip-rule="evenodd" d="M69.1315 10.753L72.079 7.6139L64.9782 0L62.0308 3.17246L69.1315 10.753Z" fill="#C38019"/>
        <path fill-rule="evenodd" clip-rule="evenodd" d="M60.8249 10.753L57.8774 7.6139L64.9782 0L67.9256 3.17246L60.8249 10.753Z" fill="#FAB417"/>
        <path fill-rule="evenodd" clip-rule="evenodd" d="M45.3172 14.5598C44.3124 12.6898 41.8004 4.87552 43.2071 3.57314C45.0493 1.87003 53.3223 3.53975 54.6621 5.44322C54.7625 6.64541 54.8296 8.74925 55.064 10.3856C55.1979 11.2872 55.3989 12.0553 55.7004 12.4226C57.8105 15.0274 61.9637 16.2296 64.9782 16.1294C67.9927 16.2296 72.1794 15.0274 74.256 12.4226C75.0599 11.3874 75.1603 7.34669 75.2943 5.44322C76.6006 3.53975 84.9071 1.83664 86.7493 3.57314C88.156 4.87552 85.6439 12.6898 84.6391 14.5598C79.3806 24.478 50.5758 24.478 45.3172 14.5598Z" fill="#C38019"/>
        <path fill-rule="evenodd" clip-rule="evenodd" d="M45.3172 14.5599C44.3124 12.6899 41.8004 4.87559 43.2071 3.57321C45.0493 1.8701 53.3223 3.53982 54.6621 5.44329C54.7625 6.77906 54.8296 9.15003 55.131 10.8198C57.1741 21.6729 73.2177 20.7045 80.5863 18.4671C70.9066 24.2443 49.7719 22.9419 45.3172 14.5599Z" fill="#FAB417"/>
    </g>
    <defs>
        <clipPath id="clip0_282_64">
            <rect width="130" height="48" fill="white"/>
        </clipPath>
    </defs>
</svg>
